<svg xmlns="http://www.w3.org/2000/svg" xml:space="preserve" fill="none" stroke="#000" stroke-width="2" viewBox="0 0 347 347"><path d="M5 5h337v337H5z"/><circle cx="298" cy="40" r="16"/><rect width="157.4" height="166.3" x="96" y="94.2" fill="#000" stroke-width="1.4" ry=".6"/><rect width="5.9" height="5.8" x="104.9" y="101.6" fill="#fff" stroke="none" ry=".3"/><rect width="5.9" height="5.8" x="131.5" y="101.5" fill="#fff" stroke="none" ry=".3"/><rect width="5.9" height="5.8" x="158.2" y="101.5" fill="#fff" stroke="none" ry=".3"/><rect width="5.9" height="5.8" x="184.9" y="101.5" fill="#fff" stroke="none" ry=".3"/><rect width="5.9" height="5.8" x="211.6" y="101.5" fill="#fff" stroke="none" ry=".3"/><rect width="5.9" height="5.8" x="238.3" y="101.5" fill="#fff" stroke="none" ry=".3"/><rect width="5.9" height="5.8" x="104.9" y="130.8" fill="#fff" stroke="none" ry=".3"/><rect width="5.9" height="5.8" x="131.5" y="130.7" fill="#fff" stroke="none" ry=".3"/><rect width="5.9" height="5.8" x="158.2" y="130.7" fill="#fff" stroke="none" ry=".3"/><rect width="5.9" height="5.8" x="184.9" y="130.7" fill="#fff" stroke="none" ry=".3"/><rect width="5.9" height="5.8" x="211.6" y="130.7" fill="#fff" stroke="none" ry=".3"/><rect width="5.9" height="5.8" x="238.3" y="130.7" fill="#fff" stroke="none" ry=".3"/><rect width="5.9" height="5.8" x="104.9" y="159.8" fill="#fff" stroke="none" ry=".3"/><rect width="5.9" height="5.8" x="131.5" y="159.8" fill="#fff" stroke="none" ry=".3"/><rect width="5.9" height="5.8" x="158.2" y="159.8" fill="#fff" stroke="none" ry=".3"/><rect width="5.9" height="5.8" x="184.9" y="159.8" fill="#fff" stroke="none" ry=".3"/><rect width="5.9" height="5.8" x="211.6" y="159.8" fill="#fff" stroke="none" ry=".3"/><rect width="5.9" height="5.8" x="238.3" y="159.8" fill="#fff" stroke="none" ry=".3"/><rect width="5.9" height="5.8" x="104.9" y="189" fill="#fff" stroke="none" ry=".3"/><rect width="5.9" height="5.8" x="131.5" y="188.9" fill="#fff" stroke="none" ry=".3"/><rect width="5.9" height="5.8" x="158.2" y="188.9" fill="#fff" stroke="none" ry=".3"/><rect width="5.9" height="5.8" x="184.9" y="188.9" fill="#fff" stroke="none" ry=".3"/><rect width="5.9" height="5.8" x="211.6" y="188.9" fill="#fff" stroke="none" ry=".3"/><rect width="5.9" height="5.8" x="238.3" y="188.9" fill="#fff" stroke="none" ry=".3"/><rect width="5.9" height="5.8" x="104.9" y="218.1" fill="#fff" stroke="none" ry=".3"/><rect width="5.9" height="5.8" x="131.5" y="218.1" fill="#fff" stroke="none" ry=".3"/><rect width="5.9" height="5.8" x="158.2" y="218.1" fill="#fff" stroke="none" ry=".3"/><rect width="5.9" height="5.8" x="184.9" y="218.1" fill="#fff" stroke="none" ry=".3"/><rect width="5.9" height="5.8" x="211.6" y="218.1" fill="#fff" stroke="none" ry=".3"/><rect width="5.9" height="5.8" x="238.3" y="218.1" fill="#fff" stroke="none" ry=".3"/><rect width="5.9" height="5.8" x="104.9" y="247.2" fill="#fff" stroke="none" ry=".3"/><rect width="5.9" height="5.8" x="131.5" y="247.1" fill="#fff" stroke="none" ry=".3"/><rect width="5.9" height="5.8" x="158.2" y="247.1" fill="#fff" stroke="none" ry=".3"/><rect width="5.9" height="5.8" x="184.9" y="247.1" fill="#fff" stroke="none" ry=".3"/><rect width="5.9" height="5.8" x="211.6" y="247.1" fill="#fff" stroke="none" ry=".3"/><rect width="5.9" height="5.8" x="238.3" y="247.1" fill="#fff" stroke="none" ry=".3"/><circle cx="107.9" cy="162.5" r="8.2" stroke="#fff" stroke-width="1.3"/><circle cx="161.2" cy="162.8" r="8.2" stroke="#fff" stroke-width="1.3"/><path fill="#000" stroke-width="3.9" d="M201 85h-52l26-45zm-51 183h53l-27 45zm113-61v-53l46 26zM89 154v53l-46-26z"/></svg>